<svg viewBox="0 0 40 40" fill="none" xmlns="http://www.w3.org/2000/svg">
<path d="M5.45453 7.27271H7.27271V5.45453H32.7273V7.27271H30.9091V9.09089H9.09089V30.9091H30.9091V20H32.7273V18.1818H34.5454V32.7273H32.7273V34.5454H7.27271V32.7273H5.45453V7.27271ZM10.9091 16.3636H14.5454V18.1818H16.3636V20H18.1818V21.8182H21.8182V20H23.6363V18.1818H25.4545V16.3636H27.2727V14.5454H29.0909V12.7273H30.9091V10.9091H32.7273V9.09089H34.5454V7.27271H38.1818V10.9091H36.3636V12.7273H34.5454V14.5454H32.7273V16.3636H30.9091V18.1818H29.0909V20H27.2727V21.8182H25.4545V23.6363H23.6363V25.4545H21.8182V27.2727H18.1818V25.4545H16.3636V23.6363H14.5454V21.8182H12.7273V20H10.9091V16.3636Z" fill="currentColor"/>
</svg>
