<svg viewBox="0 0 40 40" fill="none" xmlns="http://www.w3.org/2000/svg">
<path d="M34.9648 7.5H26.25V3.75C26.25 3.41848 26.1183 3.10054 25.8839 2.86612C25.6495 2.6317 25.3315 2.5 25 2.5H15C14.6685 2.5 14.3505 2.6317 14.1161 2.86612C13.8817 3.10054 13.75 3.41848 13.75 3.75V7.5H5.03516L5 10.625H7.57812L9.14766 35.1562C9.18738 35.7906 9.46726 36.3861 9.93035 36.8214C10.3935 37.2568 11.005 37.4995 11.6406 37.5H28.3594C28.9946 37.4999 29.606 37.258 30.0694 36.8234C30.5327 36.3888 30.8132 35.7941 30.8539 35.1602L32.4219 10.625H35L34.9648 7.5ZM13.75 32.5L13.0469 12.5H15.625L16.3281 32.5H13.75ZM21.25 32.5H18.75V12.5H21.25V32.5ZM23.125 7.5H16.875V5.3125C16.875 5.22962 16.9079 5.15013 16.9665 5.09153C17.0251 5.03292 17.1046 5 17.1875 5H22.8125C22.8954 5 22.9749 5.03292 23.0335 5.09153C23.0921 5.15013 23.125 5.22962 23.125 5.3125V7.5ZM26.25 32.5H23.6719L24.375 12.5H26.9531L26.25 32.5Z" fill="currentColor"/>
</svg>
